<svg width="862" height="47" viewBox="0 0 862 47" fill="none" xmlns="http://www.w3.org/2000/svg">
<line y1="23.75" x2="862" y2="23.75" stroke="#888888" stroke-width="0.5"/>
<rect width="112" height="47" transform="translate(371)" fill="#F8F6F4"/>
<path d="M381.918 22.628C381.918 21.656 382.08 20.762 382.404 19.946C382.728 19.13 383.178 18.428 383.754 17.84C384.33 17.24 385.02 16.772 385.824 16.436C386.64 16.1 387.534 15.932 388.506 15.932C389.478 15.932 390.366 16.1 391.17 16.436C391.986 16.772 392.682 17.24 393.258 17.84C393.834 18.428 394.284 19.13 394.608 19.946C394.932 20.762 395.094 21.656 395.094 22.628C395.094 23.6 394.932 24.5 394.608 25.328C394.284 26.144 393.834 26.852 393.258 27.452C392.682 28.04 391.986 28.502 391.17 28.838C390.366 29.162 389.478 29.324 388.506 29.324C387.534 29.324 386.64 29.162 385.824 28.838C385.02 28.502 384.33 28.04 383.754 27.452C383.178 26.852 382.728 26.144 382.404 25.328C382.08 24.5 381.918 23.6 381.918 22.628ZM383.106 22.628C383.106 23.42 383.232 24.158 383.484 24.842C383.736 25.526 384.096 26.12 384.564 26.624C385.032 27.128 385.596 27.524 386.256 27.812C386.928 28.1 387.678 28.244 388.506 28.244C389.334 28.244 390.078 28.1 390.738 27.812C391.41 27.524 391.98 27.128 392.448 26.624C392.916 26.12 393.276 25.526 393.528 24.842C393.78 24.158 393.906 23.42 393.906 22.628C393.906 21.836 393.78 21.098 393.528 20.414C393.276 19.73 392.916 19.136 392.448 18.632C391.98 18.128 391.41 17.732 390.738 17.444C390.078 17.156 389.334 17.012 388.506 17.012C387.678 17.012 386.928 17.156 386.256 17.444C385.596 17.732 385.032 18.128 384.564 18.632C384.096 19.136 383.736 19.73 383.484 20.414C383.232 21.098 383.106 21.836 383.106 22.628ZM404.49 26.66C404.49 26.816 404.496 27.008 404.508 27.236C404.52 27.452 404.526 27.674 404.526 27.902C404.538 28.13 404.55 28.346 404.562 28.55C404.574 28.742 404.58 28.892 404.58 29H403.5C403.488 28.688 403.476 28.388 403.464 28.1C403.464 27.812 403.452 27.626 403.428 27.542H403.374C403.158 27.998 402.798 28.394 402.294 28.73C401.79 29.054 401.202 29.216 400.53 29.216C399.882 29.216 399.348 29.114 398.928 28.91C398.52 28.706 398.196 28.442 397.956 28.118C397.728 27.782 397.572 27.398 397.488 26.966C397.404 26.534 397.362 26.09 397.362 25.634V20.684H398.442V25.58C398.442 25.916 398.472 26.246 398.532 26.57C398.592 26.882 398.694 27.164 398.838 27.416C398.994 27.668 399.204 27.872 399.468 28.028C399.744 28.172 400.098 28.244 400.53 28.244C400.926 28.244 401.298 28.178 401.646 28.046C402.006 27.902 402.312 27.692 402.564 27.416C402.828 27.128 403.032 26.774 403.176 26.354C403.332 25.922 403.41 25.418 403.41 24.842V20.684H404.49V26.66ZM407.454 23.024C407.454 22.868 407.448 22.682 407.436 22.466C407.424 22.238 407.412 22.01 407.4 21.782C407.4 21.554 407.394 21.344 407.382 21.152C407.37 20.948 407.364 20.792 407.364 20.684H408.444C408.456 20.996 408.462 21.296 408.462 21.584C408.474 21.872 408.492 22.058 408.516 22.142C408.792 21.65 409.146 21.248 409.578 20.936C410.01 20.624 410.538 20.468 411.162 20.468C411.27 20.468 411.372 20.48 411.468 20.504C411.576 20.516 411.684 20.534 411.792 20.558L411.666 21.62C411.522 21.572 411.384 21.548 411.252 21.548C410.784 21.548 410.376 21.626 410.028 21.782C409.692 21.926 409.41 22.13 409.182 22.394C408.966 22.658 408.804 22.97 408.696 23.33C408.588 23.678 408.534 24.056 408.534 24.464V29H407.454V23.024ZM418.43 16.256H422.102C422.582 16.256 423.068 16.298 423.56 16.382C424.052 16.454 424.49 16.616 424.874 16.868C425.27 17.108 425.588 17.45 425.828 17.894C426.08 18.326 426.206 18.902 426.206 19.622C426.206 20.27 426.014 20.834 425.63 21.314C425.246 21.794 424.676 22.112 423.92 22.268V22.304C424.34 22.34 424.724 22.442 425.072 22.61C425.42 22.766 425.72 22.982 425.972 23.258C426.224 23.522 426.416 23.84 426.548 24.212C426.692 24.584 426.764 24.992 426.764 25.436C426.764 26.168 426.62 26.768 426.332 27.236C426.056 27.692 425.702 28.052 425.27 28.316C424.85 28.58 424.388 28.76 423.884 28.856C423.392 28.952 422.93 29 422.498 29H418.43V16.256ZM419.618 21.764H422.084C422.696 21.764 423.194 21.692 423.578 21.548C423.962 21.392 424.262 21.206 424.478 20.99C424.694 20.774 424.838 20.546 424.91 20.306C424.982 20.054 425.018 19.826 425.018 19.622C425.018 19.178 424.94 18.812 424.784 18.524C424.64 18.224 424.442 17.99 424.19 17.822C423.938 17.642 423.644 17.516 423.308 17.444C422.972 17.372 422.618 17.336 422.246 17.336H419.618V21.764ZM419.618 27.92H422.336C423.032 27.92 423.59 27.836 424.01 27.668C424.442 27.5 424.772 27.29 425 27.038C425.228 26.786 425.378 26.522 425.45 26.246C425.534 25.958 425.576 25.7 425.576 25.472C425.576 25.004 425.486 24.602 425.306 24.266C425.126 23.93 424.892 23.66 424.604 23.456C424.316 23.24 423.986 23.084 423.614 22.988C423.254 22.892 422.888 22.844 422.516 22.844H419.618V27.92ZM429.461 23.024C429.461 22.868 429.455 22.682 429.443 22.466C429.431 22.238 429.419 22.01 429.407 21.782C429.407 21.554 429.401 21.344 429.389 21.152C429.377 20.948 429.371 20.792 429.371 20.684H430.451C430.463 20.996 430.469 21.296 430.469 21.584C430.481 21.872 430.499 22.058 430.523 22.142C430.799 21.65 431.153 21.248 431.585 20.936C432.017 20.624 432.545 20.468 433.169 20.468C433.277 20.468 433.379 20.48 433.475 20.504C433.583 20.516 433.691 20.534 433.799 20.558L433.673 21.62C433.529 21.572 433.391 21.548 433.259 21.548C432.791 21.548 432.383 21.626 432.035 21.782C431.699 21.926 431.417 22.13 431.189 22.394C430.973 22.658 430.811 22.97 430.703 23.33C430.595 23.678 430.541 24.056 430.541 24.464V29H429.461V23.024ZM441.918 25.508C441.918 25.916 441.918 26.282 441.918 26.606C441.93 26.93 441.942 27.23 441.954 27.506C441.966 27.782 441.978 28.04 441.99 28.28C442.014 28.52 442.044 28.76 442.08 29H441.072C441 28.592 440.964 28.142 440.964 27.65H440.928C440.616 28.19 440.226 28.586 439.758 28.838C439.302 29.09 438.72 29.216 438.012 29.216C437.652 29.216 437.298 29.168 436.95 29.072C436.602 28.988 436.29 28.85 436.014 28.658C435.738 28.454 435.51 28.196 435.33 27.884C435.162 27.572 435.078 27.194 435.078 26.75C435.078 26.114 435.24 25.61 435.564 25.238C435.888 24.866 436.284 24.59 436.752 24.41C437.232 24.218 437.736 24.098 438.264 24.05C438.804 23.99 439.278 23.96 439.686 23.96H440.946V23.456C440.946 22.736 440.724 22.22 440.28 21.908C439.836 21.596 439.278 21.44 438.606 21.44C437.646 21.44 436.8 21.752 436.068 22.376L435.438 21.638C435.834 21.254 436.326 20.966 436.914 20.774C437.502 20.57 438.066 20.468 438.606 20.468C439.614 20.468 440.418 20.708 441.018 21.188C441.618 21.656 441.918 22.418 441.918 23.474V25.508ZM439.758 24.824C439.302 24.824 438.858 24.854 438.426 24.914C438.006 24.974 437.622 25.076 437.274 25.22C436.938 25.364 436.668 25.556 436.464 25.796C436.26 26.036 436.158 26.336 436.158 26.696C436.158 26.948 436.212 27.176 436.32 27.38C436.44 27.572 436.59 27.734 436.77 27.866C436.95 27.986 437.148 28.082 437.364 28.154C437.592 28.214 437.82 28.244 438.048 28.244C438.624 28.244 439.098 28.16 439.47 27.992C439.842 27.824 440.136 27.608 440.352 27.344C440.58 27.068 440.736 26.762 440.82 26.426C440.904 26.078 440.946 25.73 440.946 25.382V24.824H439.758ZM444.79 23.024C444.79 22.868 444.784 22.682 444.772 22.466C444.76 22.238 444.748 22.01 444.736 21.782C444.736 21.554 444.73 21.344 444.718 21.152C444.706 20.948 444.7 20.792 444.7 20.684H445.78C445.792 20.996 445.798 21.296 445.798 21.584C445.81 21.872 445.828 22.058 445.852 22.142H445.906C446.122 21.686 446.482 21.296 446.986 20.972C447.49 20.636 448.078 20.468 448.75 20.468C449.398 20.468 449.926 20.57 450.334 20.774C450.742 20.978 451.06 21.248 451.288 21.584C451.528 21.908 451.69 22.286 451.774 22.718C451.87 23.15 451.918 23.594 451.918 24.05V29H450.838V24.104C450.838 23.768 450.808 23.444 450.748 23.132C450.688 22.808 450.58 22.52 450.424 22.268C450.28 22.016 450.07 21.818 449.794 21.674C449.53 21.518 449.182 21.44 448.75 21.44C448.354 21.44 447.976 21.512 447.616 21.656C447.268 21.788 446.962 21.998 446.698 22.286C446.446 22.562 446.242 22.916 446.086 23.348C445.942 23.768 445.87 24.266 445.87 24.842V29H444.79V23.024ZM462.064 27.542H462.028C461.86 27.83 461.65 28.082 461.398 28.298C461.146 28.502 460.87 28.676 460.57 28.82C460.282 28.952 459.976 29.048 459.652 29.108C459.328 29.18 459.01 29.216 458.698 29.216C458.062 29.216 457.474 29.108 456.934 28.892C456.394 28.676 455.932 28.376 455.548 27.992C455.164 27.596 454.864 27.134 454.648 26.606C454.432 26.066 454.324 25.478 454.324 24.842C454.324 24.206 454.432 23.624 454.648 23.096C454.864 22.556 455.164 22.094 455.548 21.71C455.932 21.314 456.394 21.008 456.934 20.792C457.474 20.576 458.062 20.468 458.698 20.468C459.01 20.468 459.328 20.504 459.652 20.576C459.976 20.636 460.282 20.738 460.57 20.882C460.87 21.014 461.146 21.188 461.398 21.404C461.65 21.608 461.86 21.854 462.028 22.142H462.064V15.392H463.144V29H462.064V27.542ZM462.172 24.842C462.172 24.374 462.082 23.936 461.902 23.528C461.722 23.108 461.476 22.748 461.164 22.448C460.852 22.136 460.486 21.89 460.066 21.71C459.646 21.53 459.19 21.44 458.698 21.44C458.194 21.44 457.738 21.53 457.33 21.71C456.922 21.89 456.574 22.136 456.286 22.448C455.998 22.748 455.776 23.108 455.62 23.528C455.476 23.936 455.404 24.374 455.404 24.842C455.404 25.31 455.476 25.754 455.62 26.174C455.776 26.582 455.998 26.942 456.286 27.254C456.574 27.554 456.922 27.794 457.33 27.974C457.738 28.154 458.194 28.244 458.698 28.244C459.19 28.244 459.646 28.154 460.066 27.974C460.486 27.794 460.852 27.554 461.164 27.254C461.476 26.942 461.722 26.582 461.902 26.174C462.082 25.754 462.172 25.31 462.172 24.842ZM465.813 26.876C466.041 27.32 466.377 27.662 466.821 27.902C467.265 28.13 467.733 28.244 468.225 28.244C468.453 28.244 468.681 28.208 468.909 28.136C469.137 28.064 469.341 27.962 469.521 27.83C469.701 27.698 469.845 27.542 469.953 27.362C470.073 27.17 470.133 26.954 470.133 26.714C470.133 26.33 470.007 26.042 469.755 25.85C469.515 25.658 469.215 25.508 468.855 25.4C468.495 25.292 468.099 25.202 467.667 25.13C467.235 25.046 466.839 24.926 466.479 24.77C466.119 24.602 465.813 24.374 465.561 24.086C465.321 23.798 465.201 23.39 465.201 22.862C465.201 22.454 465.285 22.1 465.453 21.8C465.621 21.5 465.837 21.254 466.101 21.062C466.377 20.858 466.683 20.708 467.019 20.612C467.355 20.516 467.697 20.468 468.045 20.468C468.729 20.468 469.317 20.594 469.809 20.846C470.313 21.098 470.703 21.494 470.979 22.034L470.007 22.61C469.803 22.226 469.545 21.938 469.233 21.746C468.933 21.542 468.537 21.44 468.045 21.44C467.853 21.44 467.649 21.47 467.433 21.53C467.229 21.59 467.043 21.674 466.875 21.782C466.707 21.89 466.563 22.028 466.443 22.196C466.335 22.364 466.281 22.556 466.281 22.772C466.281 23.144 466.401 23.42 466.641 23.6C466.893 23.78 467.199 23.924 467.559 24.032C467.919 24.128 468.315 24.212 468.747 24.284C469.179 24.356 469.575 24.476 469.935 24.644C470.295 24.8 470.595 25.034 470.835 25.346C471.087 25.646 471.213 26.078 471.213 26.642C471.213 27.074 471.129 27.452 470.961 27.776C470.805 28.088 470.583 28.352 470.295 28.568C470.019 28.784 469.701 28.946 469.341 29.054C468.981 29.162 468.603 29.216 468.207 29.216C467.487 29.216 466.827 29.078 466.227 28.802C465.639 28.526 465.183 28.1 464.859 27.524L465.813 26.876Z" fill="#535353"/>
</svg>
