<svg width="286" height="275" viewBox="0 0 286 275" fill="none" xmlns="http://www.w3.org/2000/svg">
<path d="M285.117 214.567H225.061V274.622H285.117V214.567Z" fill="#E8E8E8"/>
<path d="M60.1806 0.00219727H0.125V60.0578H60.1806V0.00219727Z" fill="#E8E8E8"/>
<path d="M69.4637 214.83C67.463 214.83 65.7431 214.374 64.2865 213.444C62.8474 212.514 61.7417 211.25 60.952 209.635C60.1622 208.021 59.7937 206.16 59.7937 204.054C59.7937 202.493 60.057 201.036 60.5659 199.72C61.0748 198.403 61.7768 197.263 62.6894 196.28C63.5845 195.297 64.6375 194.542 65.8309 193.998C67.0242 193.454 68.2878 193.191 69.6392 193.191C70.8326 193.191 71.8329 193.332 72.6051 193.595C73.3773 193.858 73.9564 194.086 74.3601 194.279C74.6233 194.402 74.8515 194.507 75.0621 194.595C75.2727 194.683 75.4306 194.718 75.5008 194.718C75.7114 194.718 75.8869 194.63 76.0273 194.472C76.1677 194.314 76.2555 194.016 76.2906 193.595H77.0277L76.975 197.035L77.0277 200.474H76.2906C75.9922 198.439 75.2902 196.859 74.167 195.736C73.0438 194.613 71.5697 194.051 69.7269 194.051C68.4282 194.051 67.3401 194.314 66.4626 194.823C65.5852 195.35 64.8656 196.069 64.3391 196.982C63.8126 197.894 63.4265 198.947 63.1808 200.158C62.9351 201.369 62.8123 202.651 62.8123 204.037C62.8123 206.108 63.0404 207.863 63.4792 209.337C63.9179 210.811 64.655 211.952 65.6554 212.742C66.6732 213.531 68.0246 213.935 69.7445 213.935C71.0256 213.935 72.1312 213.637 73.0789 213.058C74.0266 212.461 74.7813 211.689 75.3604 210.706C75.9396 209.723 76.2906 208.635 76.4134 207.459H77.1154L77.0628 211.057L77.1505 214.497H76.4485L76.3608 214.181C76.273 213.918 76.1853 213.689 76.08 213.461C75.9747 213.233 75.7816 213.128 75.5359 213.128C75.3955 213.128 75.2376 213.163 75.0445 213.251C74.8515 213.338 74.6409 213.426 74.4127 213.549C73.9038 213.812 73.2369 214.075 72.4121 214.391C71.5872 214.69 70.622 214.848 69.4988 214.848L69.4637 214.83Z" fill="black"/>
<path d="M83.9241 214.83C82.9764 214.83 82.2042 214.585 81.59 214.111C80.9758 213.637 80.6599 212.952 80.6599 212.092C80.6599 211.233 81.046 210.46 81.8006 209.776C82.5728 209.091 83.4678 208.477 84.4857 207.933C85.2579 207.494 86.0126 207.126 86.7848 206.81C87.5569 206.494 88.2063 206.231 88.7503 206.02V205.073C88.7503 204.002 88.5573 203.195 88.1536 202.651C87.75 202.124 86.9954 201.861 85.8722 201.861C85.3457 201.861 84.8192 201.931 84.3102 202.071C83.8013 202.212 83.538 202.458 83.538 202.844C83.538 202.914 83.538 203.002 83.5907 203.107C83.6258 203.212 83.6433 203.3 83.6609 203.405C83.7662 203.668 83.8013 203.932 83.8013 204.195C83.8013 204.564 83.6609 204.862 83.3976 205.073C83.1344 205.283 82.8185 205.388 82.4324 205.388C82.0814 205.388 81.783 205.266 81.5549 204.985C81.3267 204.721 81.2039 204.406 81.2039 204.02C81.2039 203.318 81.4671 202.756 82.0112 202.335C82.5552 201.914 83.2221 201.615 83.9943 201.422C84.7841 201.229 85.5387 201.141 86.2583 201.141C87.8377 201.141 88.9785 201.51 89.698 202.229C90.4176 202.949 90.7861 204.142 90.7861 205.792V211.092C90.7861 211.952 90.8563 212.619 90.9792 213.093C91.102 213.567 91.4004 213.795 91.8391 213.795C92.1375 213.795 92.3832 213.69 92.6113 213.479C92.8219 213.268 92.9799 213.023 93.0501 212.777L93.5765 212.988C93.4186 213.549 93.1378 214.005 92.7342 214.339C92.3305 214.672 91.7689 214.848 91.0669 214.848C90.207 214.848 89.6103 214.602 89.2768 214.093C88.9609 213.584 88.7679 212.935 88.7328 212.11C88.1887 212.988 87.4867 213.672 86.6444 214.146C85.802 214.62 84.8718 214.848 83.8715 214.848L83.9241 214.83ZM82.9589 211.952C82.9589 212.496 83.1168 212.935 83.4503 213.268C83.7662 213.584 84.2576 213.76 84.8718 213.76C85.4334 213.76 85.995 213.619 86.504 213.356C87.0305 213.075 87.4867 212.724 87.8728 212.303C88.2589 211.882 88.5573 211.426 88.7503 210.934V206.634C88.101 206.915 87.4341 207.231 86.7672 207.6C86.0828 207.968 85.4685 208.372 84.8894 208.828C84.3102 209.284 83.8364 209.758 83.4854 210.285C83.1344 210.811 82.9589 211.373 82.9589 211.987V211.952Z" fill="black"/>
<path d="M94.4375 214.602V213.918L94.9113 213.865C95.4905 213.795 95.9117 213.689 96.2276 213.584C96.5259 213.479 96.7365 213.233 96.8594 212.847C96.9822 212.461 97.0349 211.829 97.0349 210.952V204.827C97.0349 204.055 96.9296 203.493 96.719 203.142C96.5084 202.791 96.21 202.563 95.8239 202.475C95.4378 202.387 94.964 202.335 94.4375 202.335V201.65C95.2448 201.65 96.017 201.615 96.7716 201.563C97.5087 201.51 98.2985 201.422 99.1058 201.299L98.7899 204.686H98.9127C99.3515 203.37 99.878 202.44 100.51 201.913C101.142 201.387 101.808 201.124 102.546 201.124C103.37 201.124 103.914 201.317 104.195 201.72C104.476 202.124 104.616 202.51 104.616 202.879C104.616 203.318 104.494 203.669 104.23 203.932C103.967 204.213 103.634 204.353 103.195 204.353C102.756 204.353 102.475 204.248 102.247 204.055C102.037 203.862 101.931 203.633 101.931 203.37C101.931 203.177 101.949 202.984 102.001 202.809C102.054 202.633 102.072 202.493 102.072 202.387C102.072 202.194 101.931 202.089 101.65 202.089C101.37 202.089 101.089 202.212 100.773 202.475C100.475 202.738 100.211 203.089 100.001 203.528C99.8253 203.897 99.6498 204.318 99.4919 204.757C99.3339 205.213 99.2111 205.704 99.1058 206.231V210.881C99.1058 211.759 99.1584 212.391 99.2813 212.777C99.4041 213.163 99.6147 213.409 99.9131 213.514C100.211 213.619 100.65 213.707 101.229 213.795L101.703 213.847V214.532L98.0879 214.444L94.4726 214.532L94.4375 214.602Z" fill="black"/>
<path d="M105.598 214.602V213.918L106.072 213.865C106.634 213.795 107.072 213.689 107.388 213.584C107.687 213.479 107.897 213.233 108.02 212.847C108.143 212.461 108.196 211.829 108.196 210.952V196.578C108.196 195.56 107.985 194.911 107.564 194.613C107.143 194.332 106.563 194.191 105.809 194.191H105.598V193.507C106.405 193.507 107.178 193.489 107.932 193.437C108.687 193.384 109.459 193.296 110.266 193.156V210.952C110.266 211.829 110.319 212.461 110.442 212.847C110.565 213.233 110.775 213.479 111.074 213.584C111.372 213.689 111.811 213.777 112.39 213.865L112.864 213.918V214.602L109.249 214.514L105.633 214.602H105.598Z" fill="black"/>
<path d="M118.042 214.83C117.094 214.83 116.322 214.585 115.708 214.111C115.093 213.637 114.778 212.952 114.778 212.092C114.778 211.233 115.164 210.46 115.918 209.776C116.691 209.091 117.586 208.477 118.603 207.933C119.376 207.494 120.13 207.126 120.902 206.81C121.675 206.494 122.324 206.231 122.868 206.02V205.073C122.868 204.002 122.675 203.195 122.271 202.651C121.868 202.124 121.113 201.861 119.99 201.861C119.463 201.861 118.937 201.931 118.428 202.071C117.919 202.212 117.656 202.458 117.656 202.844C117.656 202.914 117.656 203.002 117.708 203.107C117.744 203.212 117.761 203.3 117.779 203.405C117.884 203.668 117.919 203.932 117.919 204.195C117.919 204.564 117.779 204.862 117.515 205.073C117.252 205.283 116.936 205.388 116.55 205.388C116.199 205.388 115.901 205.266 115.673 204.985C115.444 204.721 115.322 204.406 115.322 204.02C115.322 203.318 115.585 202.756 116.129 202.335C116.673 201.914 117.34 201.615 118.112 201.422C118.902 201.229 119.656 201.141 120.376 201.141C121.955 201.141 123.096 201.51 123.816 202.229C124.535 202.949 124.904 204.142 124.904 205.792V211.092C124.904 211.952 124.974 212.619 125.097 213.093C125.22 213.567 125.518 213.795 125.957 213.795C126.255 213.795 126.501 213.69 126.729 213.479C126.94 213.268 127.098 213.023 127.168 212.777L127.694 212.988C127.536 213.549 127.256 214.005 126.852 214.339C126.448 214.672 125.887 214.848 125.185 214.848C124.325 214.848 123.728 214.602 123.395 214.093C123.079 213.584 122.886 212.935 122.851 212.11C122.306 212.988 121.604 213.672 120.762 214.146C119.92 214.62 118.99 214.848 117.989 214.848L118.042 214.83ZM117.077 211.952C117.077 212.496 117.235 212.935 117.568 213.268C117.884 213.584 118.375 213.76 118.99 213.76C119.551 213.76 120.113 213.619 120.622 213.356C121.148 213.075 121.604 212.724 121.991 212.303C122.377 211.882 122.675 211.426 122.868 210.934V206.634C122.219 206.915 121.552 207.231 120.885 207.6C120.2 207.968 119.586 208.372 119.007 208.828C118.428 209.284 117.954 209.758 117.603 210.285C117.252 210.811 117.077 211.373 117.077 211.987V211.952Z" fill="black"/>
<path d="M136.679 214.602V213.865L137.276 213.812C137.96 213.742 138.486 213.637 138.855 213.496C139.224 213.373 139.469 213.093 139.61 212.671C139.75 212.25 139.82 211.548 139.82 210.6V197.526C139.82 196.543 139.75 195.841 139.61 195.437C139.469 195.016 139.224 194.753 138.855 194.63C138.486 194.507 137.96 194.402 137.276 194.314L136.679 194.262V193.524L141.031 193.612H144.629C145.155 193.612 145.77 193.63 146.489 193.665C147.191 193.7 147.911 193.805 148.63 193.946C149.35 194.086 150.017 194.332 150.631 194.683C151.245 195.034 151.754 195.49 152.14 196.104C152.526 196.701 152.719 197.473 152.719 198.421C152.719 199.369 152.509 200.106 152.088 200.755C151.666 201.404 151.14 201.931 150.491 202.352C149.859 202.773 149.192 203.107 148.507 203.335C149.455 203.423 150.333 203.633 151.157 203.984C151.982 204.335 152.649 204.879 153.176 205.616C153.702 206.353 153.948 207.336 153.948 208.582C153.948 209.723 153.72 210.671 153.281 211.46C152.842 212.233 152.246 212.847 151.491 213.286C150.736 213.724 149.911 214.04 149.016 214.251C148.121 214.461 147.191 214.549 146.279 214.549H141.031L136.679 214.637V214.602ZM145.524 194.419H142.189V203.107H146.103C147.314 203.107 148.262 202.721 148.946 201.931C149.631 201.141 149.964 199.965 149.964 198.403C149.964 197.28 149.789 196.438 149.438 195.876C149.087 195.315 148.578 194.928 147.928 194.735C147.261 194.542 146.472 194.437 145.524 194.437V194.419ZM144.646 213.689H146.296C147.279 213.689 148.139 213.549 148.876 213.286C149.613 213.005 150.175 212.496 150.578 211.776C150.982 211.039 151.175 209.986 151.175 208.617C151.175 207.248 150.947 206.283 150.491 205.616C150.034 204.949 149.35 204.511 148.437 204.282C147.525 204.054 146.349 203.967 144.927 203.967H142.189V210.741C142.189 211.917 142.383 212.706 142.786 213.11C143.19 213.514 143.804 213.707 144.629 213.707L144.646 213.689Z" fill="black"/>
<path d="M163.496 214.83C162.197 214.83 161.074 214.549 160.108 213.988C159.143 213.426 158.389 212.654 157.862 211.654C157.318 210.653 157.055 209.53 157.055 208.249C157.055 206.88 157.353 205.652 157.932 204.581C158.529 203.511 159.319 202.668 160.302 202.054C161.284 201.44 162.39 201.124 163.583 201.124C165.093 201.124 166.286 201.598 167.128 202.563C167.988 203.528 168.41 204.792 168.41 206.371C168.41 206.599 168.41 206.81 168.374 206.968C168.357 207.126 168.339 207.231 168.322 207.284H159.424C159.406 207.565 159.389 207.828 159.389 208.109C159.389 209.144 159.547 210.109 159.898 211.004C160.231 211.899 160.74 212.601 161.407 213.145C162.092 213.672 162.916 213.935 163.899 213.935C164.829 213.935 165.637 213.672 166.356 213.145C167.076 212.619 167.62 211.847 168.023 210.829L168.725 211.092C167.901 213.567 166.146 214.795 163.478 214.795L163.496 214.83ZM163.583 201.861C162.372 201.861 161.425 202.3 160.74 203.16C160.056 204.02 159.652 205.178 159.494 206.599H163.232C164.11 206.599 164.794 206.494 165.251 206.283C165.707 206.073 166.023 205.827 166.198 205.511C166.374 205.195 166.444 204.915 166.444 204.616C166.444 203.756 166.146 203.072 165.566 202.58C164.97 202.089 164.32 201.843 163.601 201.843L163.583 201.861Z" fill="black"/>
<path d="M174.5 214.83C173.552 214.83 172.78 214.585 172.165 214.111C171.551 213.637 171.235 212.952 171.235 212.092C171.235 211.233 171.621 210.46 172.376 209.776C173.148 209.091 174.043 208.477 175.061 207.933C175.833 207.494 176.588 207.126 177.36 206.81C178.132 206.494 178.782 206.231 179.326 206.02V205.073C179.326 204.002 179.133 203.195 178.729 202.651C178.325 202.124 177.571 201.861 176.448 201.861C175.921 201.861 175.395 201.931 174.886 202.071C174.377 202.212 174.113 202.458 174.113 202.844C174.113 202.914 174.113 203.002 174.148 203.107C174.184 203.212 174.201 203.3 174.219 203.405C174.324 203.668 174.359 203.932 174.359 204.195C174.359 204.564 174.236 204.862 173.955 205.073C173.692 205.283 173.376 205.388 172.99 205.388C172.639 205.388 172.341 205.266 172.113 204.985C171.885 204.721 171.762 204.406 171.762 204.02C171.762 203.318 172.025 202.756 172.569 202.335C173.113 201.914 173.78 201.615 174.552 201.422C175.342 201.229 176.097 201.141 176.816 201.141C178.396 201.141 179.536 201.51 180.256 202.229C180.975 202.949 181.344 204.142 181.344 205.792V211.092C181.344 211.952 181.414 212.619 181.537 213.093C181.66 213.567 181.958 213.795 182.397 213.795C182.695 213.795 182.941 213.69 183.169 213.479C183.38 213.268 183.538 213.023 183.608 212.777L184.134 212.988C183.976 213.549 183.696 214.005 183.292 214.339C182.888 214.672 182.327 214.848 181.625 214.848C180.765 214.848 180.168 214.602 179.835 214.093C179.519 213.584 179.326 212.935 179.291 212.11C178.747 212.988 178.045 213.672 177.202 214.146C176.36 214.62 175.43 214.848 174.429 214.848L174.5 214.83ZM173.534 211.952C173.534 212.496 173.692 212.935 174.026 213.268C174.342 213.584 174.833 213.76 175.447 213.76C176.009 213.76 176.57 213.619 177.079 213.356C177.606 213.075 178.062 212.724 178.448 212.303C178.834 211.882 179.133 211.426 179.326 210.934V206.634C178.676 206.915 178.009 207.231 177.343 207.6C176.658 207.968 176.044 208.372 175.465 208.828C174.886 209.284 174.412 209.758 174.061 210.285C173.71 210.811 173.534 211.373 173.534 211.987V211.952Z" fill="black"/>
<path d="M190.627 214.83C189.346 214.83 188.346 214.514 187.609 213.865C186.872 213.216 186.503 212.285 186.503 211.022V205.301C186.503 204.423 186.45 203.791 186.328 203.405C186.205 203.019 185.994 202.773 185.696 202.651C185.398 202.528 184.959 202.44 184.38 202.387L183.906 202.335V201.65L187.521 201.738L188.556 201.703V210.899C188.556 211.864 188.802 212.601 189.294 213.11C189.785 213.619 190.452 213.882 191.294 213.882C192.014 213.882 192.663 213.724 193.225 213.391C193.786 213.075 194.26 212.654 194.664 212.145C195.067 211.636 195.383 211.11 195.629 210.583V205.318C195.629 204.441 195.576 203.809 195.454 203.423C195.331 203.037 195.12 202.791 194.822 202.668C194.523 202.545 194.085 202.457 193.506 202.405L193.032 202.352V201.668L196.647 201.755L197.682 201.72V211.232C197.682 211.987 197.77 212.531 197.963 212.9C198.156 213.268 198.419 213.496 198.788 213.619C199.157 213.742 199.595 213.795 200.122 213.795V214.479C199.315 214.479 198.577 214.479 197.911 214.514C197.244 214.549 196.471 214.62 195.612 214.777V212.075C195.418 212.391 195.208 212.671 194.997 212.9C194.488 213.461 193.874 213.935 193.137 214.304C192.4 214.672 191.558 214.848 190.61 214.848L190.627 214.83Z" fill="black"/>
<path d="M206.441 214.83C205.476 214.83 204.704 214.549 204.107 213.97C203.51 213.391 203.212 212.443 203.212 211.127V202.405H201.036V201.668L201.826 201.615C202.633 201.562 203.247 201.229 203.668 200.632C204.089 200.035 204.37 199.193 204.511 198.105H205.283V201.668H209.056V202.405H205.283V211.25C205.283 212.987 205.897 213.847 207.108 213.847C207.617 213.847 208.038 213.672 208.337 213.338C208.635 213.005 208.933 212.566 209.196 212.057L209.846 212.391C209.723 212.689 209.583 212.952 209.425 213.198C209.249 213.444 209.091 213.654 208.933 213.83C208.6 214.198 208.214 214.461 207.792 214.619C207.371 214.777 206.915 214.848 206.459 214.848L206.441 214.83Z" fill="black"/>
<path d="M211.25 223.184C210.583 223.184 210.074 223.026 209.74 222.692C209.407 222.377 209.231 222.008 209.231 221.622C209.231 221.236 209.372 220.902 209.653 220.639C209.933 220.376 210.302 220.235 210.723 220.235C211.004 220.235 211.215 220.288 211.373 220.376C211.53 220.464 211.671 220.551 211.811 220.657C211.952 220.762 212.11 220.85 212.285 220.973C212.461 221.078 212.671 221.131 212.899 221.131C213.25 221.131 213.619 220.99 214.005 220.709C214.391 220.429 214.777 219.867 215.198 219.007L217.146 214.83L212.25 204.107C212.057 203.651 211.846 203.282 211.601 202.984C211.373 202.686 211.004 202.51 210.513 202.458L209.828 202.37V201.685L212.899 201.773L215.883 201.685V202.37L215.462 202.422C214.637 202.545 214.233 202.844 214.233 203.335C214.233 203.563 214.338 203.932 214.549 204.388L218.235 212.461L221.92 204.528C222.131 204.037 222.236 203.651 222.236 203.388C222.236 202.861 221.762 202.528 220.797 202.422L220.323 202.37V201.685L223.148 201.773L225.5 201.685V202.37L225.061 202.422C224.342 202.528 223.815 202.791 223.482 203.212C223.166 203.651 222.85 204.177 222.587 204.809L215.935 219.323C215.62 219.99 215.251 220.622 214.83 221.201C214.409 221.797 213.9 222.271 213.321 222.622C212.741 222.991 212.039 223.166 211.215 223.166L211.25 223.184Z" fill="black"/>
<path d="M133.521 119.376C133.592 119.218 129.678 119.061 129.643 119.061C124.062 119.061 117.902 119.85 112.479 118.271C102.721 115.393 95.6489 106.776 93.4201 97.0355C91.1912 87.2602 93.736 76.5373 100.598 69.1312C106.951 62.2692 114.462 60.8477 123.29 60.8477C123.852 60.8477 126.888 61.0934 127.168 60.4967C127.239 60.3387 123.325 60.1457 123.29 60.1457C114.726 60.1457 106.056 59.6543 98.492 64.4278C87.6988 71.2372 82.8726 84.7857 85.6806 97.0355C88.278 108.408 97.2986 117.551 108.952 119.306C115.691 120.324 122.851 119.763 129.643 119.763C130.205 119.763 133.241 119.991 133.521 119.394V119.376Z" fill="black"/>
<path d="M183.609 122.448C175.624 118.078 166.13 119.06 157.355 119.06C156.793 119.06 153.757 118.815 153.476 119.411C153.406 119.569 157.32 119.762 157.355 119.762C160.707 119.762 164.252 119.411 167.586 119.762C174.22 120.464 180.415 124.641 184.469 129.783C193.069 140.717 193.227 157.056 184.908 168.183C180.889 173.553 174.536 178.063 167.674 178.765C164.954 179.046 162.04 178.765 159.303 178.765H147.755V60.4264C147.509 59.9174 140.279 59.8999 138.84 59.8999C137.927 59.8999 134.961 60.0578 134.961 60.3913C134.961 60.6194 138.699 60.6019 139.752 60.6019V178.783H137.172C136.611 178.783 133.575 178.537 133.294 179.134C133.224 179.292 137.137 179.485 137.172 179.485H157.284C163.76 179.485 170.763 180.081 177.133 178.59C202.774 172.535 206.038 134.732 183.627 122.465H183.609V122.448Z" fill="black"/>
<path d="M285.223 270.235V274.622H280.835" stroke="#939393" stroke-width="0.25" stroke-miterlimit="10"/>
<path d="M271.937 274.622H8.97021" stroke="#939393" stroke-width="0.25" stroke-miterlimit="10"/>
<path d="M4.51246 274.622H0.125V270.235" stroke="#939393" stroke-width="0.25" stroke-miterlimit="10"/>
<path d="M0.125 261.653V8.79468" stroke="#939393" stroke-width="0.25" stroke-miterlimit="10"/>
<path d="M0.125 4.51246V0.125H4.51246" stroke="#939393" stroke-width="0.25" stroke-miterlimit="10"/>
<path d="M13.4279 0.125H276.377" stroke="#939393" stroke-width="0.25" stroke-miterlimit="10"/>
<path d="M280.835 0.125H285.223V4.51246" stroke="#939393" stroke-width="0.25" stroke-miterlimit="10"/>
<path d="M285.223 13.0769V265.953" stroke="#939393" stroke-width="0.25" stroke-miterlimit="10"/>
<path d="M284.469 214.918H280.082" stroke="#939393" stroke-width="0.25" stroke-miterlimit="10"/>
<path d="M271.219 214.918H9.7265" stroke="#939393" stroke-width="0.25" stroke-miterlimit="10"/>
<path d="M5.2859 214.918H0.898438" stroke="#939393" stroke-width="0.25" stroke-miterlimit="10"/>
<path d="M0.898438 59.812H5.2859" stroke="#939393" stroke-width="0.25" stroke-miterlimit="10"/>
<path d="M14.1483 59.812H275.641" stroke="#939393" stroke-width="0.25" stroke-miterlimit="10"/>
<path d="M280.082 59.812H284.469" stroke="#939393" stroke-width="0.25" stroke-miterlimit="10"/>
<path d="M225.536 0.125V4.51246" stroke="#939393" stroke-width="0.25" stroke-miterlimit="10"/>
<path d="M225.536 13.0769V265.953" stroke="#939393" stroke-width="0.25" stroke-miterlimit="10"/>
<path d="M225.536 270.235V274.622" stroke="#939393" stroke-width="0.25" stroke-miterlimit="10"/>
<path d="M59.8285 274.622V270.235" stroke="#939393" stroke-width="0.25" stroke-miterlimit="10"/>
<path d="M59.8285 261.653V8.79468" stroke="#939393" stroke-width="0.25" stroke-miterlimit="10"/>
<path d="M59.8285 4.51246V0.125" stroke="#939393" stroke-width="0.25" stroke-miterlimit="10"/>
</svg>
